<svg xmlns="http://www.w3.org/2000/svg"  viewBox="0 0 100 100" width="500px" height="500px"><path fill="#c7ede6" d="M87.215,56.71C88.35,54.555,89,52.105,89,49.5c0-6.621-4.159-12.257-10.001-14.478 C78.999,35.015,79,35.008,79,35c0-11.598-9.402-21-21-21c-9.784,0-17.981,6.701-20.313,15.757C36.211,29.272,34.638,29,33,29 c-7.692,0-14.023,5.793-14.89,13.252C12.906,43.353,9,47.969,9,53.5C9,59.851,14.149,65,20.5,65c0.177,0,0.352-0.012,0.526-0.022 C21.022,65.153,21,65.324,21,65.5C21,76.822,30.178,86,41.5,86c6.437,0,12.175-2.972,15.934-7.614C59.612,80.611,62.64,82,66,82 c4.65,0,8.674-2.65,10.666-6.518C77.718,75.817,78.837,76,80,76c6.075,0,11-4.925,11-11C91,61.689,89.53,58.727,87.215,56.71z"/><path fill="#fdfcef" d="M34.875,38.5c0,0,3.64,0,6.125,0s4.5-2.015,4.5-4.5c0-2.333-1.782-4.229-4.055-4.455 C41.467,29.364,41.5,29.187,41.5,29c0-2.485-2.015-4.5-4.5-4.5c-1.438,0-2.703,0.686-3.527,1.736 C33.333,23.6,31.171,21.5,28.5,21.5c-2.761,0-5,2.239-5,5c0,0.446,0.077,0.87,0.187,1.282C23.045,27.005,22.086,26.5,21,26.5 c-1.781,0-3.234,1.335-3.455,3.055C17.364,29.533,17.187,29.5,17,29.5c-2.485,0-4.5,2.015-4.5,4.5s2.015,4.5,4.5,4.5s9.5,0,9.5,0 h5.375V39h3V38.5z"/><path fill="#472b29" d="M28.5,21c-3.033,0-5.5,2.467-5.5,5.5c0,0.016,0,0.031,0,0.047C22.398,26.192,21.71,26,21,26 c-1.831,0-3.411,1.261-3.858,3.005C17.095,29.002,17.048,29,17,29c-2.757,0-5,2.243-5,5s2.243,5,5,5h14.875 c0.276,0,0.5-0.224,0.5-0.5s-0.224-0.5-0.5-0.5H17c-2.206,0-4-1.794-4-4s1.794-4,4-4c0.117,0,0.23,0.017,0.343,0.032l0.141,0.019 c0.021,0.003,0.041,0.004,0.062,0.004c0.246,0,0.462-0.185,0.495-0.437C18.232,28.125,19.504,27,21,27 c0.885,0,1.723,0.401,2.301,1.1c0.098,0.118,0.241,0.182,0.386,0.182c0.078,0,0.156-0.018,0.228-0.056 c0.209-0.107,0.314-0.346,0.254-0.573C24.054,27.218,24,26.852,24,26.5c0-2.481,2.019-4.5,4.5-4.5 c2.381,0,4.347,1.872,4.474,4.263c0.011,0.208,0.15,0.387,0.349,0.45c0.05,0.016,0.101,0.024,0.152,0.024 c0.15,0,0.296-0.069,0.392-0.192C34.638,25.563,35.779,25,37,25c2.206,0,4,1.794,4,4c0,0.117-0.017,0.23-0.032,0.343 l-0.019,0.141c-0.016,0.134,0.022,0.268,0.106,0.373c0.084,0.105,0.207,0.172,0.34,0.185C43.451,30.247,45,31.949,45,34 c0,2.206-1.794,4-4,4h-6.125c-0.276,0-0.5,0.224-0.5,0.5s0.224,0.5,0.5,0.5H41c2.757,0,5-2.243,5-5 c0-2.397-1.689-4.413-4.003-4.877C41.999,29.082,42,29.041,42,29c0-2.757-2.243-5-5-5c-1.176,0-2.293,0.416-3.183,1.164 C33.219,22.76,31.055,21,28.5,21L28.5,21z"/><path fill="#472b29" d="M27,28c-1.403,0-2.609,0.999-2.913,2.341C23.72,30.119,23.301,30,22.875,30 c-1.202,0-2.198,0.897-2.353,2.068C20.319,32.022,20.126,32,19.937,32c-1.529,0-2.811,1.2-2.918,2.732 C17.01,34.87,17.114,34.99,17.251,35c0.006,0,0.012,0,0.018,0c0.13,0,0.24-0.101,0.249-0.232 c0.089-1.271,1.151-2.268,2.419-2.268c0.229,0,0.47,0.042,0.738,0.127c0.022,0.007,0.045,0.01,0.067,0.01 c0.055,0,0.11-0.02,0.156-0.054C20.962,32.537,21,32.455,21,32.375c0-1.034,0.841-1.875,1.875-1.875 c0.447,0,0.885,0.168,1.231,0.473c0.047,0.041,0.106,0.063,0.165,0.063c0.032,0,0.063-0.006,0.093-0.019 c0.088-0.035,0.148-0.117,0.155-0.212C24.623,29.512,25.712,28.5,27,28.5c0.208,0,0.425,0.034,0.682,0.107 c0.023,0.007,0.047,0.01,0.07,0.01c0.109,0,0.207-0.073,0.239-0.182c0.038-0.133-0.039-0.271-0.172-0.309 C27.517,28.04,27.256,28,27,28L27,28z"/><path fill="#fff" d="M70.405,23H60.5c-0.276,0-0.5-0.224-0.5-0.5s0.224-0.5,0.5-0.5h9.905c0.276,0,0.5,0.224,0.5,0.5 S70.682,23,70.405,23z"/><path fill="#fff" d="M73.5,23h-1c-0.276,0-0.5-0.224-0.5-0.5s0.224-0.5,0.5-0.5h1c0.276,0,0.5,0.224,0.5,0.5 S73.777,23,73.5,23z"/><path fill="#fff" d="M78.491,25H69.5c-0.276,0-0.5-0.224-0.5-0.5s0.224-0.5,0.5-0.5h8.991c0.276,0,0.5,0.224,0.5,0.5 S78.767,25,78.491,25z"/><path fill="#fff" d="M67.5,25h-1c-0.276,0-0.5-0.224-0.5-0.5s0.224-0.5,0.5-0.5h1c0.276,0,0.5,0.224,0.5,0.5 S67.777,25,67.5,25z"/><path fill="#fff" d="M64.5,25h-2c-0.276,0-0.5-0.224-0.5-0.5s0.224-0.5,0.5-0.5h2c0.276,0,0.5,0.224,0.5,0.5 S64.777,25,64.5,25z"/><path fill="#fff" d="M70.5,27h-2c-0.276,0-0.5-0.224-0.5-0.5s0.224-0.5,0.5-0.5h2c0.276,0,0.5,0.224,0.5,0.5 S70.776,27,70.5,27z"/><path fill="#fff" d="M73.5,18c-0.177,0-0.823,0-1,0c-0.276,0-0.5,0.224-0.5,0.5c0,0.276,0.224,0.5,0.5,0.5 c0.177,0,0.823,0,1,0c0.276,0,0.5-0.224,0.5-0.5C74,18.224,73.776,18,73.5,18z"/><path fill="#fff" d="M73.5,20c-0.177,0-4.823,0-5,0c-0.276,0-0.5,0.224-0.5,0.5c0,0.276,0.224,0.5,0.5,0.5 c0.177,0,4.823,0,5,0c0.276,0,0.5-0.224,0.5-0.5C74,20.224,73.776,20,73.5,20z"/><path fill="#fff" d="M78.5,22c-0.177,0-2.823,0-3,0c-0.276,0-0.5,0.224-0.5,0.5c0,0.276,0.224,0.5,0.5,0.5 c0.177,0,2.823,0,3,0c0.276,0,0.5-0.224,0.5-0.5C79,22.224,78.776,22,78.5,22z"/><path fill="#fff" d="M32.5,80h-10c-0.276,0-0.5-0.224-0.5-0.5s0.224-0.5,0.5-0.5h10c0.276,0,0.5,0.224,0.5,0.5 S32.776,80,32.5,80z"/><path fill="#fff" d="M36.5,80h-2c-0.276,0-0.5-0.224-0.5-0.5s0.224-0.5,0.5-0.5h2c0.276,0,0.5,0.224,0.5,0.5 S36.776,80,36.5,80z"/><path fill="#fff" d="M41.5,82h-10c-0.276,0-0.5-0.224-0.5-0.5s0.224-0.5,0.5-0.5h10c0.276,0,0.5,0.224,0.5,0.5 S41.777,82,41.5,82z"/><path fill="#fff" d="M29.5,82h-1c-0.276,0-0.5-0.224-0.5-0.5s0.224-0.5,0.5-0.5h1c0.276,0,0.5,0.224,0.5,0.5 S29.776,82,29.5,82z"/><path fill="#fff" d="M26.375,82H24.5c-0.276,0-0.5-0.224-0.5-0.5s0.224-0.5,0.5-0.5h1.875c0.276,0,0.5,0.224,0.5,0.5 S26.651,82,26.375,82z"/><path fill="#fff" d="M35.5,78h-5c-0.276,0-0.5-0.224-0.5-0.5s0.224-0.5,0.5-0.5h5c0.276,0,0.5,0.224,0.5,0.5 S35.777,78,35.5,78z"/><path fill="#fff" d="M32.5,84h-2c-0.276,0-0.5-0.224-0.5-0.5s0.224-0.5,0.5-0.5h2c0.276,0,0.5,0.224,0.5,0.5 S32.776,84,32.5,84z"/><g><path fill="#77cbd2" d="M27.727,63.5c-4.82,0-8.727-4.148-8.727-9.265c0-4.744,3.39-8.353,7.721-8.89 c0.09-0.011,0.154-0.083,0.144-0.172c-0.045-0.375-0.084-0.898-0.107-1.233c-0.395-5.745,3.907-9.265,8.727-9.265 c2.7,0,5.087,1.326,6.686,3.373c0.055,0.071,0.162,0.039,0.169-0.05c0.386-5.309,4.53-9.499,9.63-9.499 c5.355,0,9.697,4.609,9.697,10.294c0,0.83-0.122,1.624-0.303,2.394c-0.017,0.074,0.07,0.119,0.126,0.066 c1.518-1.442,3.233-2.388,5.257-2.388c3.393,0,6.302,2.284,6.463,6.019c0.005,0.107,0.097,0.187,0.206,0.176 C78.271,44.57,83,49.188,83,54.235c0,5.117-3.907,9.265-8.727,9.265s-18.424,0-18.424,0S30.167,63.5,27.727,63.5z"/></g><g><path fill="#472b29" d="M74.13,45.004c-0.237,0-0.476,0.012-0.714,0.037c-0.007,0-0.014,0.001-0.021,0.001 c-0.1,0-0.181-0.078-0.186-0.18c-0.161-3.815-3.07-6.148-6.463-6.148c-2.024,0-3.739,0.966-5.257,2.439 c-0.017,0.016-0.036,0.023-0.055,0.023c-0.044,0-0.083-0.038-0.071-0.091c0.18-0.787,0.303-1.597,0.303-2.445 c0-5.807-4.341-10.515-9.697-10.515c-5.1,0-9.244,4.28-9.63,9.703c-0.004,0.056-0.047,0.09-0.092,0.09 c-0.027,0-0.055-0.012-0.076-0.039c-1.599-2.09-3.986-3.445-6.687-3.445c-4.82,0-9.122,3.595-8.727,9.464 c0.023,0.342,0.063,0.876,0.107,1.259c0.01,0.09-0.053,0.164-0.144,0.175C22.39,45.88,19,49.566,19,54.412 c0,5.226,3.907,9.463,8.727,9.463c1.117,0,7.107,0,13.273,0c1.035,0,1.059-1.43,0-1.43H27.727c-4.04,0-7.327-3.604-7.327-8.033 c0-3.963,2.731-7.185,6.494-7.662c0.852-0.108,1.462-0.899,1.361-1.764c-0.042-0.361-0.079-0.865-0.101-1.187 c-0.149-2.221,0.469-4.158,1.789-5.602c1.356-1.483,3.375-2.334,5.541-2.334c2.141,0,4.176,1.055,5.583,2.895 c0.286,0.375,0.716,0.59,1.18,0.59c0.778,0,1.432-0.622,1.489-1.417c0.334-4.697,3.951-8.376,8.234-8.376 c4.575,0,8.297,4.075,8.297,9.085c0,0.655-0.084,1.329-0.266,2.12c-0.103,0.45-0.001,0.916,0.279,1.277 c0.281,0.362,0.702,0.57,1.155,0.57c0.381,0,0.743-0.148,1.019-0.417c1.418-1.377,2.823-2.046,4.293-2.046 c2.342,0,4.926,1.496,5.064,4.78c0.037,0.868,0.733,1.548,1.584,1.548l0.091-0.001l0.07-0.007 c0.189-0.019,0.382-0.029,0.574-0.029c3.839,0,7.469,3.877,7.469,7.978c0,4.429-3.287,8.033-7.327,8.033H45 c-1.071,0-1.078,1.43,0,1.43c4.41,0,26.165,0,29.273,0c4.82,0,8.727-4.237,8.727-9.463C83,49.509,78.725,45.003,74.13,45.004z"/></g><g><path fill="#472b29" d="M45.938,39.5c-0.008,0-0.016,0-0.024-0.001c-0.138-0.013-0.238-0.135-0.226-0.272 c0.446-4.714,3.009-6.292,4.497-6.812c2.159-0.755,4.393-0.224,5.308,0.724c0.096,0.099,0.093,0.258-0.007,0.354 c-0.099,0.096-0.256,0.093-0.354-0.006c-0.788-0.818-2.842-1.279-4.782-0.6c-1.375,0.481-3.745,1.95-4.164,6.387 C46.174,39.403,46.065,39.5,45.938,39.5z"/></g><g><path fill="#472b29" d="M28.625,59.813c-0.001,0-0.003,0-0.004,0c-1.907-0.034-3.498-0.917-4.48-2.486 c-1.025-1.638-1.171-3.717-0.379-5.425c0.058-0.125,0.208-0.18,0.332-0.122c0.125,0.058,0.18,0.207,0.122,0.332 c-0.722,1.557-0.588,3.453,0.349,4.949c0.89,1.42,2.333,2.22,4.065,2.251c0.138,0.002,0.248,0.116,0.246,0.254 C28.873,59.704,28.761,59.813,28.625,59.813z"/></g><g><path fill="#472b29" d="M25.534,50.365c-0.076,0-0.152-0.035-0.201-0.101c-0.082-0.111-0.059-0.268,0.053-0.35 c1.394-1.031,3.348-1.436,5.674-1.176c-0.597-1.465-0.925-2.833-0.976-4.073c-0.005-0.138,0.102-0.254,0.24-0.26 c0.142-0.003,0.254,0.102,0.26,0.24c0.052,1.29,0.424,2.736,1.104,4.296c0.037,0.083,0.025,0.179-0.03,0.251 s-0.146,0.108-0.234,0.096c-2.381-0.344-4.367,0.012-5.74,1.027C25.638,50.349,25.586,50.365,25.534,50.365z"/></g><g><path fill="#472b29" d="M30.537,42.885c-0.021,0-0.043-0.003-0.064-0.008c-0.133-0.036-0.213-0.173-0.177-0.306 c0.357-1.341,1.145-2.405,2.278-3.077c0.118-0.07,0.272-0.031,0.342,0.088c0.071,0.119,0.031,0.272-0.087,0.343 c-1.018,0.604-1.727,1.564-2.049,2.776C30.749,42.811,30.648,42.885,30.537,42.885z"/></g><g><path fill="#472b29" d="M38.563,40.375c-0.055,0-0.11-0.018-0.156-0.055c-1.019-0.816-2.378-1.187-3.723-1.022 c-0.143,0.019-0.262-0.08-0.279-0.218c-0.017-0.137,0.081-0.262,0.217-0.279c1.48-0.184,2.974,0.229,4.097,1.127 c0.108,0.086,0.125,0.244,0.039,0.352C38.708,40.343,38.636,40.375,38.563,40.375z"/></g><g><path fill="#472b29" d="M73.5,59.75h-5c-0.138,0-0.25-0.112-0.25-0.25s0.112-0.25,0.25-0.25h5 c1.977,0,3.825-1.115,4.708-2.84c0.859-1.678,0.629-3.642-0.629-5.389c-0.081-0.112-0.056-0.268,0.057-0.349 c0.11-0.08,0.268-0.055,0.349,0.057c1.373,1.905,1.616,4.058,0.669,5.909C77.685,58.528,75.662,59.75,73.5,59.75z"/></g><g><path fill="#472b29" d="M66.5,59.75h-7c-0.138,0-0.25-0.112-0.25-0.25s0.112-0.25,0.25-0.25h7 c0.138,0,0.25,0.112,0.25,0.25S66.638,59.75,66.5,59.75z"/></g><g><path fill="#472b29" d="M55.5,59.75h-25c-0.138,0-0.25-0.112-0.25-0.25s0.112-0.25,0.25-0.25h25 c0.138,0,0.25,0.112,0.25,0.25S55.638,59.75,55.5,59.75z"/></g><g><path fill="#472b29" d="M56.657,56.657c-0.256,0-0.512-0.098-0.707-0.293L44.636,45.05c-0.391-0.39-0.391-1.024,0-1.414 c0.391-0.391,1.023-0.391,1.414,0L57.364,54.95c0.391,0.39,0.391,1.024,0,1.414C57.168,56.559,56.913,56.657,56.657,56.657z"/></g><g><path fill="#472b29" d="M45.343,56.657c-0.256,0-0.512-0.098-0.707-0.293c-0.391-0.39-0.391-1.024,0-1.414L55.95,43.636 c0.391-0.391,1.023-0.391,1.414,0c0.391,0.39,0.391,1.024,0,1.414L46.05,56.364C45.855,56.559,45.599,56.657,45.343,56.657z"/></g><g><path fill="#fdfcef" d="M84.5,70.5c0,0,1.567,0,3.5,0s3.5-1.567,3.5-3.5c0-1.781-1.335-3.234-3.055-3.455 C88.473,63.366,88.5,63.187,88.5,63c0-1.933-1.567-3.5-3.5-3.5c-1.032,0-1.95,0.455-2.59,1.165 c-0.384-1.808-1.987-3.165-3.91-3.165c-2.209,0-4,1.791-4,4c0,0.191,0.03,0.374,0.056,0.558C74.128,61.714,73.592,61.5,73,61.5 c-1.228,0-2.245,0.887-2.455,2.055C70.366,63.527,70.187,63.5,70,63.5c-1.933,0-3.5,1.567-3.5,3.5s1.567,3.5,3.5,3.5s7.5,0,7.5,0 V71h7V70.5z"/><path fill="#472b29" d="M86.25,66C86.112,66,86,65.888,86,65.75c0-1.223,0.995-2.218,2.218-2.218 c0.034,0.009,0.737-0.001,1.244,0.136c0.133,0.036,0.212,0.173,0.176,0.306c-0.036,0.134-0.173,0.213-0.306,0.176 c-0.444-0.12-1.1-0.12-1.113-0.118c-0.948,0-1.719,0.771-1.719,1.718C86.5,65.888,86.388,66,86.25,66z"/><circle cx="79.5" cy="70.5" r=".5" fill="#472b29"/><path fill="#472b29" d="M88,71h-3.5c-0.276,0-0.5-0.224-0.5-0.5s0.224-0.5,0.5-0.5H88c1.654,0,3-1.346,3-3 c0-1.496-1.125-2.768-2.618-2.959c-0.134-0.018-0.255-0.088-0.336-0.196s-0.115-0.244-0.094-0.377C87.975,63.314,88,63.16,88,63 c0-1.654-1.346-3-3-3c-0.85,0-1.638,0.355-2.219,1c-0.125,0.139-0.321,0.198-0.5,0.148c-0.182-0.049-0.321-0.195-0.36-0.379 C81.58,59.165,80.141,58,78.5,58c-1.93,0-3.5,1.57-3.5,3.5c0,0.143,0.021,0.28,0.041,0.418c0.029,0.203-0.063,0.438-0.242,0.54 c-0.179,0.102-0.396,0.118-0.556-0.01C73.878,62.155,73.449,62,73,62c-0.966,0-1.792,0.691-1.963,1.644 c-0.048,0.267-0.296,0.446-0.569,0.405C70.314,64.025,70.16,64,70,64c-1.654,0-3,1.346-3,3s1.346,3,3,3h7.5 c0.276,0,0.5,0.224,0.5,0.5S77.776,71,77.5,71H70c-2.206,0-4-1.794-4-4s1.794-4,4-4c0.059,0,0.116,0.002,0.174,0.006 C70.588,61.82,71.711,61,73,61c0.349,0,0.689,0.061,1.011,0.18C74.176,58.847,76.126,57,78.5,57c1.831,0,3.466,1.127,4.153,2.774 C83.333,59.276,84.155,59,85,59c2.206,0,4,1.794,4,4c0,0.048-0.001,0.095-0.004,0.142C90.739,63.59,92,65.169,92,67 C92,69.206,90.206,71,88,71z"/><path fill="#472b29" d="M82.5,70c-0.159,0-0.841,0-1,0c-0.276,0-0.5,0.224-0.5,0.5c0,0.276,0.224,0.5,0.5,0.5 c0.159,0,0.841,0,1,0c0.276,0,0.5-0.224,0.5-0.5C83,70.224,82.776,70,82.5,70z"/></g></svg>