<svg xmlns="http://www.w3.org/2000/svg"  viewBox="0 0 100 100" width="500px" height="500px"><path fill="#c7ede6" d="M87.215,56.71C88.35,54.555,89,52.105,89,49.5c0-6.621-4.159-12.257-10.001-14.478 C78.999,35.015,79,35.008,79,35c0-11.598-9.402-21-21-21c-9.784,0-17.981,6.701-20.313,15.757C36.211,29.272,34.638,29,33,29 c-7.692,0-14.023,5.793-14.89,13.252C12.906,43.353,9,47.969,9,53.5C9,59.851,14.149,65,20.5,65c0.177,0,0.352-0.012,0.526-0.022 C21.022,65.153,21,65.324,21,65.5C21,76.822,30.178,86,41.5,86c6.437,0,12.175-2.972,15.934-7.614C59.612,80.611,62.64,82,66,82 c4.65,0,8.674-2.65,10.666-6.518C77.718,75.817,78.837,76,80,76c6.075,0,11-4.925,11-11C91,61.689,89.53,58.727,87.215,56.71z"/><path fill="#fdfcef" d="M37.875,38.5c0,0,3.64,0,6.125,0s4.5-2.015,4.5-4.5c0-2.333-1.782-4.229-4.055-4.455 C44.467,29.364,44.5,29.187,44.5,29c0-2.485-2.015-4.5-4.5-4.5c-1.438,0-2.703,0.686-3.527,1.736 C36.333,23.6,34.171,21.5,31.5,21.5c-2.761,0-5,2.239-5,5c0,0.446,0.077,0.87,0.187,1.282C26.045,27.005,25.086,26.5,24,26.5 c-1.781,0-3.234,1.335-3.455,3.055C20.364,29.533,20.187,29.5,20,29.5c-2.485,0-4.5,2.015-4.5,4.5s2.015,4.5,4.5,4.5s9.5,0,9.5,0 h5.375V39h3V38.5z"/><path fill="#472b29" d="M31.5,21c-3.033,0-5.5,2.467-5.5,5.5c0,0.016,0,0.031,0,0.047C25.398,26.192,24.71,26,24,26 c-1.831,0-3.411,1.261-3.858,3.005C20.095,29.002,20.048,29,20,29c-2.757,0-5,2.243-5,5s2.243,5,5,5h14.875 c0.276,0,0.5-0.224,0.5-0.5s-0.224-0.5-0.5-0.5H20c-2.206,0-4-1.794-4-4s1.794-4,4-4c0.117,0,0.23,0.017,0.343,0.032l0.141,0.019 c0.021,0.003,0.041,0.004,0.062,0.004c0.246,0,0.462-0.185,0.495-0.437C21.232,28.125,22.504,27,24,27 c0.885,0,1.723,0.401,2.301,1.1c0.098,0.118,0.241,0.182,0.386,0.182c0.078,0,0.156-0.018,0.228-0.056 c0.209-0.107,0.314-0.346,0.254-0.573C27.054,27.218,27,26.852,27,26.5c0-2.481,2.019-4.5,4.5-4.5 c2.381,0,4.347,1.872,4.474,4.263c0.011,0.208,0.15,0.387,0.349,0.45c0.05,0.016,0.101,0.024,0.152,0.024 c0.15,0,0.296-0.069,0.392-0.192C37.638,25.563,38.779,25,40,25c2.206,0,4,1.794,4,4c0,0.117-0.017,0.23-0.032,0.343l-0.019,0.141 c-0.016,0.134,0.022,0.268,0.106,0.373c0.084,0.105,0.207,0.172,0.34,0.185C46.451,30.247,48,31.949,48,34c0,2.206-1.794,4-4,4 h-6.125c-0.276,0-0.5,0.224-0.5,0.5s0.224,0.5,0.5,0.5H44c2.757,0,5-2.243,5-5c0-2.397-1.689-4.413-4.003-4.877 C44.999,29.082,45,29.041,45,29c0-2.757-2.243-5-5-5c-1.176,0-2.293,0.416-3.183,1.164C36.219,22.76,34.055,21,31.5,21L31.5,21z"/><path fill="#472b29" d="M30 28c-1.403 0-2.609.999-2.913 2.341C26.72 30.119 26.301 30 25.875 30c-1.202 0-2.198.897-2.353 2.068C23.319 32.022 23.126 32 22.937 32c-1.529 0-2.811 1.2-2.918 2.732C20.01 34.87 20.114 34.99 20.251 35c.006 0 .012 0 .018 0 .13 0 .24-.101.249-.232.089-1.271 1.151-2.268 2.419-2.268.229 0 .47.042.738.127.022.007.045.01.067.01.055 0 .11-.02.156-.054C23.962 32.537 24 32.455 24 32.375c0-1.034.841-1.875 1.875-1.875.447 0 .885.168 1.231.473.047.041.106.063.165.063.032 0 .063-.006.093-.019.088-.035.148-.117.155-.212C27.623 29.512 28.712 28.5 30 28.5c.208 0 .425.034.682.107.023.007.047.01.07.01.109 0 .207-.073.239-.182.038-.133-.039-.271-.172-.309C30.517 28.04 30.256 28 30 28L30 28zM43.883 29.5c-1.326 0-2.508.897-2.874 2.182-.038.133.039.271.172.309C41.205 31.997 41.228 32 41.25 32c.109 0 .209-.072.24-.182C41.795 30.748 42.779 30 43.883 30c.117 0 .23.014.342.029.012.002.023.003.035.003.121 0 .229-.092.246-.217.019-.137-.077-.263-.214-.281C44.158 29.516 44.022 29.5 43.883 29.5L43.883 29.5z"/><path fill="#fff" d="M32.405 77H22.5c-.276 0-.5-.224-.5-.5s.224-.5.5-.5h9.905c.276 0 .5.224.5.5S32.682 77 32.405 77zM35.5 77h-1c-.276 0-.5-.224-.5-.5s.224-.5.5-.5h1c.276 0 .5.224.5.5S35.777 77 35.5 77zM40.491 79H31.5c-.276 0-.5-.224-.5-.5s.224-.5.5-.5h8.991c.276 0 .5.224.5.5S40.767 79 40.491 79zM29.5 79h-1c-.276 0-.5-.224-.5-.5s.224-.5.5-.5h1c.276 0 .5.224.5.5S29.777 79 29.5 79zM26.5 79h-2c-.276 0-.5-.224-.5-.5s.224-.5.5-.5h2c.276 0 .5.224.5.5S26.777 79 26.5 79zM32.5 81h-2c-.276 0-.5-.224-.5-.5s.224-.5.5-.5h2c.276 0 .5.224.5.5S32.776 81 32.5 81zM35.5 72c-.177 0-.823 0-1 0-.276 0-.5.224-.5.5 0 .276.224.5.5.5.177 0 .823 0 1 0 .276 0 .5-.224.5-.5C36 72.224 35.776 72 35.5 72zM35.5 74c-.177 0-4.823 0-5 0-.276 0-.5.224-.5.5 0 .276.224.5.5.5.177 0 4.823 0 5 0 .276 0 .5-.224.5-.5C36 74.224 35.776 74 35.5 74zM40.5 76c-.177 0-2.823 0-3 0-.276 0-.5.224-.5.5 0 .276.224.5.5.5.177 0 2.823 0 3 0 .276 0 .5-.224.5-.5C41 76.224 40.776 76 40.5 76zM72.5 28h-10c-.276 0-.5-.224-.5-.5s.224-.5.5-.5h10c.276 0 .5.224.5.5S72.776 28 72.5 28zM76.5 28h-2c-.276 0-.5-.224-.5-.5s.224-.5.5-.5h2c.276 0 .5.224.5.5S76.776 28 76.5 28zM81.5 30h-10c-.276 0-.5-.224-.5-.5s.224-.5.5-.5h10c.276 0 .5.224.5.5S81.777 30 81.5 30zM69.5 30h-1c-.276 0-.5-.224-.5-.5s.224-.5.5-.5h1c.276 0 .5.224.5.5S69.776 30 69.5 30zM66.375 30H64.5c-.276 0-.5-.224-.5-.5s.224-.5.5-.5h1.875c.276 0 .5.224.5.5S66.651 30 66.375 30zM75.5 26h-5c-.276 0-.5-.224-.5-.5s.224-.5.5-.5h5c.276 0 .5.224.5.5S75.777 26 75.5 26zM72.5 32h-2c-.276 0-.5-.224-.5-.5s.224-.5.5-.5h2c.276 0 .5.224.5.5S72.776 32 72.5 32z"/><g><path fill="#fdfcef" d="M82.5,73.5c0,0,1.567,0,3.5,0s3.5-1.567,3.5-3.5c0-1.781-1.335-3.234-3.055-3.455 C86.473,66.366,86.5,66.187,86.5,66c0-1.933-1.567-3.5-3.5-3.5c-1.032,0-1.95,0.455-2.59,1.165 c-0.384-1.808-1.987-3.165-3.91-3.165c-2.209,0-4,1.791-4,4c0,0.191,0.03,0.374,0.056,0.558C72.128,64.714,71.592,64.5,71,64.5 c-1.228,0-2.245,0.887-2.455,2.055C68.366,66.527,68.187,66.5,68,66.5c-1.933,0-3.5,1.567-3.5,3.5s1.567,3.5,3.5,3.5s7.5,0,7.5,0 V74h7V73.5z"/><path fill="#472b29" d="M84.25 69C84.112 69 84 68.888 84 68.75c0-1.223.995-2.218 2.218-2.218.034.009.737-.001 1.244.136.133.036.212.173.176.306-.036.134-.173.213-.306.176-.444-.12-1.1-.12-1.113-.118-.948 0-1.719.771-1.719 1.718C84.5 68.888 84.388 69 84.25 69zM77.5 73A.5.5 0 1 0 77.5 74 .5.5 0 1 0 77.5 73z"/><path fill="#472b29" d="M86,74h-3.5c-0.276,0-0.5-0.224-0.5-0.5s0.224-0.5,0.5-0.5H86c1.654,0,3-1.346,3-3 c0-1.496-1.125-2.768-2.618-2.959c-0.134-0.018-0.255-0.088-0.336-0.196s-0.115-0.244-0.094-0.377C85.975,66.314,86,66.16,86,66 c0-1.654-1.346-3-3-3c-0.85,0-1.638,0.355-2.219,1c-0.125,0.139-0.321,0.198-0.5,0.148c-0.182-0.049-0.321-0.195-0.36-0.379 C79.58,62.165,78.141,61,76.5,61c-1.93,0-3.5,1.57-3.5,3.5c0,0.143,0.021,0.28,0.041,0.418c0.029,0.203-0.063,0.438-0.242,0.54 c-0.179,0.102-0.396,0.118-0.556-0.01C71.878,65.155,71.449,65,71,65c-0.966,0-1.792,0.691-1.963,1.644 c-0.048,0.267-0.296,0.446-0.569,0.405C68.314,67.025,68.16,67,68,67c-1.654,0-3,1.346-3,3s1.346,3,3,3h7.5 c0.276,0,0.5,0.224,0.5,0.5S75.776,74,75.5,74H68c-2.206,0-4-1.794-4-4s1.794-4,4-4c0.059,0,0.116,0.002,0.174,0.006 C68.588,64.82,69.711,64,71,64c0.349,0,0.689,0.061,1.011,0.18C72.176,61.847,74.126,60,76.5,60c1.831,0,3.466,1.127,4.153,2.774 C81.333,62.276,82.155,62,83,62c2.206,0,4,1.794,4,4c0,0.048-0.001,0.095-0.004,0.142C88.739,66.59,90,68.169,90,70 C90,72.206,88.206,74,86,74z"/><path fill="#472b29" d="M80.5,73c-0.159,0-0.841,0-1,0c-0.276,0-0.5,0.224-0.5,0.5c0,0.276,0.224,0.5,0.5,0.5 c0.159,0,0.841,0,1,0c0.276,0,0.5-0.224,0.5-0.5C81,73.224,80.776,73,80.5,73z"/></g><g><path fill="#a1d3a2" d="M57.973,53.064L32.436,68.599c-0.767,0.466-1.748-0.085-1.748-0.983l0-31.07 c0-0.897,0.982-1.449,1.748-0.983l25.537,15.535C58.71,51.547,58.71,52.616,57.973,53.064z"/><path fill="#472b29" d="M31.838,69.47c-0.311,0-0.622-0.08-0.907-0.24c-0.591-0.332-0.944-0.936-0.944-1.613v-31.07 c0-0.678,0.353-1.281,0.944-1.613c0.591-0.33,1.29-0.319,1.869,0.033l25.537,15.535c0.557,0.338,0.889,0.93,0.889,1.581 c0,0.65-0.332,1.242-0.889,1.58L32.799,69.196C32.5,69.379,32.169,69.47,31.838,69.47z M31.84,36.094 c-0.101,0-0.182,0.036-0.223,0.06c-0.069,0.039-0.229,0.154-0.229,0.393v31.07c0,0.238,0.16,0.354,0.229,0.393 c0.069,0.041,0.25,0.114,0.454-0.008l25.538-15.534c0.195-0.119,0.216-0.31,0.216-0.385c0-0.077-0.021-0.267-0.216-0.386 L32.072,36.161C31.989,36.111,31.91,36.094,31.84,36.094z M57.973,53.064h0.01H57.973z"/></g><g><path fill="#a1d3a2" d="M80.529,53.08L54.445,68.616c-0.775,0.462-1.757-0.097-1.757-0.999l0-31.072 c0-0.902,0.982-1.46,1.757-0.999l26.085,15.536C81.286,51.533,81.286,52.629,80.529,53.08z"/><path fill="#472b29" d="M53.851,69.482c-0.316,0-0.632-0.082-0.922-0.246c-0.589-0.336-0.942-0.941-0.942-1.619V36.546 c0-0.679,0.353-1.284,0.943-1.62c0.59-0.335,1.291-0.327,1.873,0.02L80.888,50.48c0.569,0.34,0.909,0.938,0.909,1.601 s-0.34,1.261-0.909,1.601L54.803,69.218C54.506,69.395,54.179,69.482,53.851,69.482z M53.853,36.081 c-0.105,0-0.189,0.038-0.231,0.063c-0.07,0.04-0.234,0.159-0.234,0.402v31.071c0,0.242,0.164,0.361,0.234,0.401 c0.07,0.041,0.257,0.121,0.465-0.004l26.084-15.536c0.204-0.121,0.226-0.318,0.226-0.397s-0.022-0.276-0.226-0.397L54.086,36.148 C54.003,36.099,53.923,36.081,53.853,36.081z M80.529,53.08h0.01H80.529z"/></g><g><path fill="#472b29" d="M56.5,54.25c-0.276,0-0.5-0.224-0.5-0.5V43.062c0-0.429,0.223-0.81,0.596-1.019 c0.374-0.21,0.814-0.201,1.179,0.021l2.109,1.284c0.236,0.144,0.311,0.451,0.167,0.687s-0.451,0.312-0.688,0.167l-2.109-1.284 c-0.071-0.043-0.136-0.021-0.169-0.003C57.054,42.933,57,42.976,57,43.062V53.75C57,54.026,56.776,54.25,56.5,54.25z"/></g><g><path fill="#472b29" d="M57.168,62.271c-0.196,0-0.393-0.051-0.573-0.152C56.223,61.909,56,61.529,56,61.102v-3.414 c0-0.276,0.224-0.5,0.5-0.5s0.5,0.224,0.5,0.5v3.414c0,0.085,0.054,0.128,0.085,0.146c0.033,0.019,0.099,0.042,0.169-0.002 l1.913-1.165c0.239-0.145,0.544-0.069,0.688,0.167c0.144,0.235,0.069,0.543-0.167,0.687l-1.913,1.165 C57.586,62.214,57.377,62.271,57.168,62.271z"/></g><g><path fill="#472b29" d="M63.723,58.392c-0.169,0-0.333-0.085-0.428-0.24c-0.144-0.235-0.069-0.543,0.167-0.687l8.606-5.24 c0.07-0.043,0.081-0.108,0.081-0.143c0-0.036-0.01-0.102-0.081-0.145L70.66,51.08c-0.236-0.144-0.311-0.451-0.167-0.687 c0.144-0.235,0.45-0.312,0.688-0.167l1.408,0.857c0.351,0.214,0.561,0.588,0.56,0.998c0,0.411-0.21,0.783-0.561,0.996l-8.605,5.24 C63.901,58.368,63.811,58.392,63.723,58.392z"/></g><g><path fill="#472b29" d="M68.055,49.409c-0.088,0-0.178-0.023-0.26-0.073l-5.613-3.418c-0.236-0.144-0.311-0.451-0.167-0.687 c0.143-0.236,0.45-0.313,0.688-0.167l5.613,3.418c0.236,0.144,0.311,0.451,0.167,0.687C68.388,49.324,68.224,49.409,68.055,49.409z"/></g><g><path fill="#472b29" d="M34.5,59.625c-0.276,0-0.5-0.224-0.5-0.5V43.062c0-0.428,0.223-0.809,0.596-1.018 c0.373-0.208,0.814-0.2,1.178,0.022l2.818,1.726c0.235,0.145,0.31,0.452,0.165,0.688c-0.144,0.235-0.452,0.311-0.688,0.166 l-2.818-1.726c-0.07-0.046-0.135-0.02-0.167-0.004C35.053,42.935,35,42.977,35,43.062v16.063C35,59.401,34.776,59.625,34.5,59.625z"/></g><g><path fill="#472b29" d="M37.159,61.162c-0.168,0-0.333-0.085-0.427-0.239c-0.145-0.235-0.07-0.543,0.165-0.688l3.191-1.953 c0.235-0.145,0.543-0.069,0.688,0.166c0.145,0.235,0.07,0.543-0.165,0.688l-3.191,1.953C37.338,61.139,37.248,61.162,37.159,61.162 z"/></g><g><path fill="#472b29" d="M43.046,57.559c-0.168,0-0.333-0.085-0.427-0.239c-0.145-0.235-0.07-0.543,0.165-0.688l7.203-4.409 c0.069-0.042,0.079-0.106,0.079-0.142c0-0.034-0.01-0.099-0.079-0.141l-4.063-2.487c-0.235-0.145-0.31-0.452-0.165-0.688 c0.144-0.236,0.452-0.311,0.688-0.166l4.063,2.487c0.349,0.214,0.557,0.586,0.557,0.994c0,0.409-0.208,0.781-0.557,0.995 l-7.203,4.409C43.226,57.535,43.135,57.559,43.046,57.559z"/></g><g><path fill="#472b29" d="M43.88,48.115c-0.089,0-0.179-0.023-0.261-0.073l-3.555-2.176c-0.235-0.145-0.31-0.452-0.165-0.688 c0.144-0.236,0.451-0.309,0.688-0.166l3.555,2.176c0.235,0.145,0.31,0.452,0.165,0.688C44.213,48.03,44.049,48.115,43.88,48.115z"/></g></svg>