<svg xmlns="http://www.w3.org/2000/svg"  viewBox="0 0 100 100" width="500px" height="500px"><path fill="#c7ede6" d="M87.215,56.71C88.35,54.555,89,52.105,89,49.5c0-6.621-4.159-12.257-10.001-14.478 C78.999,35.015,79,35.008,79,35c0-11.598-9.402-21-21-21c-9.784,0-17.981,6.701-20.313,15.757C36.211,29.272,34.638,29,33,29 c-7.692,0-14.023,5.793-14.89,13.252C12.906,43.353,9,47.969,9,53.5C9,59.851,14.149,65,20.5,65c0.177,0,0.352-0.012,0.526-0.022 C21.022,65.153,21,65.324,21,65.5C21,76.822,30.178,86,41.5,86c6.437,0,12.175-2.972,15.934-7.614C59.612,80.611,62.64,82,66,82 c4.65,0,8.674-2.65,10.666-6.518C77.718,75.817,78.837,76,80,76c6.075,0,11-4.925,11-11C91,61.689,89.53,58.727,87.215,56.71z"/><path fill="#fff" d="M17.405 53H7.5C7.224 53 7 52.776 7 52.5S7.224 52 7.5 52h9.905c.276 0 .5.224.5.5S17.682 53 17.405 53zM20.5 53h-1c-.276 0-.5-.224-.5-.5s.224-.5.5-.5h1c.276 0 .5.224.5.5S20.777 53 20.5 53zM25.491 55H16.5c-.276 0-.5-.224-.5-.5s.224-.5.5-.5h8.991c.276 0 .5.224.5.5S25.767 55 25.491 55zM14.5 55h-1c-.276 0-.5-.224-.5-.5s.224-.5.5-.5h1c.276 0 .5.224.5.5S14.777 55 14.5 55zM11.5 55h-2C9.224 55 9 54.776 9 54.5S9.224 54 9.5 54h2c.276 0 .5.224.5.5S11.777 55 11.5 55zM17.5 57h-2c-.276 0-.5-.224-.5-.5s.224-.5.5-.5h2c.276 0 .5.224.5.5S17.776 57 17.5 57zM20.5 48c-.177 0-.823 0-1 0-.276 0-.5.224-.5.5 0 .276.224.5.5.5.177 0 .823 0 1 0 .276 0 .5-.224.5-.5C21 48.224 20.776 48 20.5 48zM20.5 50c-.177 0-4.823 0-5 0-.276 0-.5.224-.5.5 0 .276.224.5.5.5.177 0 4.823 0 5 0 .276 0 .5-.224.5-.5C21 50.224 20.776 50 20.5 50zM25.5 52c-.177 0-2.823 0-3 0-.276 0-.5.224-.5.5 0 .276.224.5.5.5.177 0 2.823 0 3 0 .276 0 .5-.224.5-.5C26 52.224 25.776 52 25.5 52zM70 23H60c-.276 0-.5-.224-.5-.5S59.724 22 60 22h10c.276 0 .5.224.5.5S70.276 23 70 23zM74 23h-2c-.276 0-.5-.224-.5-.5S71.724 22 72 22h2c.276 0 .5.224.5.5S74.276 23 74 23zM79 25H69c-.276 0-.5-.224-.5-.5S68.724 24 69 24h10c.276 0 .5.224.5.5S79.277 25 79 25zM67 25h-1c-.276 0-.5-.224-.5-.5S65.724 24 66 24h1c.276 0 .5.224.5.5S67.276 25 67 25zM63.875 25H62c-.276 0-.5-.224-.5-.5S61.724 24 62 24h1.875c.276 0 .5.224.5.5S64.151 25 63.875 25zM73 21h-5c-.276 0-.5-.224-.5-.5S67.724 20 68 20h5c.276 0 .5.224.5.5S73.277 21 73 21zM70 27h-2c-.276 0-.5-.224-.5-.5S67.724 26 68 26h2c.276 0 .5.224.5.5S70.276 27 70 27z"/><g><path fill="#fdfcef" d="M71.25,59.5c0,0-1.567,0-3.5,0s-3.5-1.567-3.5-3.5c0-1.781,1.335-3.234,3.055-3.455 C67.277,52.366,67.25,52.187,67.25,52c0-1.933,1.567-3.5,3.5-3.5c1.032,0,1.95,0.455,2.59,1.165 c0.384-1.808,1.987-3.165,3.91-3.165c2.209,0,4,1.791,4,4c0,0.191-0.03,0.374-0.056,0.558c0.428-0.344,0.965-0.558,1.556-0.558 c1.228,0,2.245,0.887,2.455,2.055c0.179-0.028,0.358-0.055,0.545-0.055c1.933,0,3.5,1.567,3.5,3.5s-1.567,3.5-3.5,3.5 s-7.5,0-7.5,0V60h-7V59.5z"/><path fill="#472b29" d="M69.5 55c.138 0 .25-.112.25-.25 0-1.223-.995-2.218-2.218-2.218-.034.009-.737-.001-1.244.136-.133.036-.212.173-.176.306.036.134.173.213.306.176.444-.12 1.1-.12 1.113-.118.948 0 1.719.771 1.719 1.718C69.25 54.888 69.362 55 69.5 55zM76.25 59A.5.5 0 1 0 76.25 60 .5.5 0 1 0 76.25 59z"/><path fill="#472b29" d="M67.75,60h3.5c0.276,0,0.5-0.224,0.5-0.5s-0.224-0.5-0.5-0.5h-3.5c-1.654,0-3-1.346-3-3 c0-1.496,1.125-2.768,2.618-2.959c0.134-0.018,0.255-0.088,0.336-0.196s0.115-0.244,0.094-0.377 C67.775,52.314,67.75,52.16,67.75,52c0-1.654,1.346-3,3-3c0.85,0,1.638,0.355,2.219,1c0.125,0.139,0.321,0.198,0.5,0.148 c0.182-0.049,0.321-0.195,0.36-0.379C74.17,48.165,75.609,47,77.25,47c1.93,0,3.5,1.57,3.5,3.5c0,0.143-0.021,0.28-0.041,0.418 c-0.029,0.203,0.063,0.438,0.242,0.54c0.179,0.102,0.396,0.118,0.556-0.01C81.872,51.155,82.301,51,82.75,51 c0.966,0,1.792,0.691,1.963,1.644c0.048,0.267,0.296,0.446,0.569,0.405C85.436,53.025,85.59,53,85.75,53c1.654,0,3,1.346,3,3 s-1.346,3-3,3h-7.5c-0.276,0-0.5,0.224-0.5,0.5s0.224,0.5,0.5,0.5h7.5c2.206,0,4-1.794,4-4s-1.794-4-4-4 c-0.059,0-0.116,0.002-0.174,0.006C85.162,50.82,84.039,50,82.75,50c-0.349,0-0.689,0.061-1.011,0.18 C81.574,47.847,79.624,46,77.25,46c-1.831,0-3.466,1.127-4.153,2.774C72.417,48.276,71.595,48,70.75,48c-2.206,0-4,1.794-4,4 c0,0.048,0.001,0.095,0.004,0.142C65.011,52.59,63.75,54.169,63.75,56C63.75,58.206,65.544,60,67.75,60z"/><path fill="#472b29" d="M73.25,59c0.159,0,0.841,0,1,0c0.276,0,0.5,0.224,0.5,0.5c0,0.276-0.224,0.5-0.5,0.5 c-0.159,0-0.841,0-1,0c-0.276,0-0.5-0.224-0.5-0.5C72.75,59.224,72.974,59,73.25,59z"/></g><g><path fill="#fdfcef" d="M44,34h5.75c2.485,0.75,4.5-1.265,4.5-3.75c0-2.333-1.782-4.229-4.055-4.455 c0.022-0.181,0.055-0.358,0.055-0.545c0-2.485-2.015-4.5-4.5-4.5c-1.438,0-2.703,0.686-3.527,1.736 c-0.14-2.636-2.302-4.736-4.973-4.736c-2.761,0-5,2.239-5,5c0,0.446,0.077,0.87,0.187,1.282c-0.642-0.777-1.6-1.282-2.687-1.282 c-1.781,0-3.234,1.335-3.455,3.055c-0.181-0.022-0.358-0.055-0.545-0.055c-2.485,0-4.5,2.015-4.5,4.5s2.015,4.5,4.5,3.75h9.5H41v1 h3V34z"/><path fill="#472b29" d="M37.5,17c-3.033,0-5.5,2.467-5.5,5.5c0,0.016,0,0.031,0,0.047C31.398,22.192,30.71,22,30,22 c-1.831,0-3.411,1.261-3.858,3.005C26.095,25.002,26.048,25,26,25c-3.099,0-5.549,2.834-4.893,6.047 C21.587,33.398,23.796,35,26.196,35l14.679,0c0.276,0,0.5-0.224,0.5-0.5s-0.224-0.5-0.5-0.5l-14.718,0 c-1.92,0-3.687-1.282-4.071-3.163C21.561,28.267,23.521,26,26,26c0.117,0,0.23,0.017,0.343,0.032l0.141,0.019 c0.021,0.003,0.041,0.004,0.062,0.004c0.246,0,0.462-0.185,0.495-0.437C27.232,24.125,28.504,23,30,23 c0.885,0,1.723,0.401,2.301,1.1c0.098,0.118,0.241,0.182,0.386,0.182c0.078,0,0.156-0.018,0.228-0.056 c0.209-0.107,0.314-0.346,0.254-0.573c-0.16-0.6-0.202-1.069-0.147-1.549c0.24-2.127,1.959-3.909,4.092-4.088 c2.551-0.215,4.725,1.728,4.859,4.246c0.011,0.208,0.15,0.387,0.349,0.45c0.05,0.016,0.101,0.024,0.152,0.024 c0.15,0,0.296-0.069,0.392-0.192C43.638,21.563,44.779,21,46,21c2.206,0,4,1.794,4,4c0,0.117-0.017,0.23-0.032,0.343l-0.019,0.141 c-0.016,0.134,0.022,0.268,0.106,0.373c0.084,0.105,0.207,0.172,0.34,0.185c2.352,0.234,4.042,2.429,3.504,4.865 C53.491,32.76,51.725,34,49.827,34l-5.952,0c-0.276,0-0.5,0.224-0.5,0.5s0.224,0.5,0.5,0.5l5.938,0 c2.467,0,4.708-1.704,5.115-4.138c0.462-2.763-1.344-5.22-3.931-5.74C50.999,25.082,51,25.041,51,25c0-2.757-2.243-5-5-5 c-1.176,0-2.293,0.416-3.183,1.164C42.219,18.76,40.055,17,37.5,17L37.5,17z"/><path fill="#472b29" d="M35.75 24.25c-1.403 0-2.609.999-2.913 2.341-.367-.222-.786-.341-1.212-.341-1.202 0-2.198.897-2.353 2.068-.203-.045-.396-.068-.585-.068-1.529 0-2.811 1.2-2.918 2.732-.009.138.094.257.232.267.006 0 .012 0 .018 0 .13 0 .24-.101.249-.232.089-1.271 1.151-2.268 2.419-2.268.229 0 .47.042.738.127.022.007.045.01.067.01.055 0 .11-.02.156-.054.064-.047.102-.129.102-.209 0-1.034.841-1.875 1.875-1.875.447 0 .885.168 1.231.473.047.041.106.063.165.063.032 0 .063-.006.093-.019.088-.035.148-.117.155-.212.102-1.292 1.191-2.305 2.479-2.305.208 0 .425.034.682.107.023.007.047.01.07.01.109 0 .207-.073.239-.182.038-.133-.039-.271-.172-.309C36.267 24.29 36.006 24.25 35.75 24.25L35.75 24.25zM49.633 25.75c-1.326 0-2.508.897-2.874 2.182-.038.133.039.271.172.309.023.007.046.01.068.01.109 0 .209-.072.24-.182.305-1.071 1.289-1.818 2.393-1.818.117 0 .23.014.342.029.012.002.023.003.035.003.121 0 .229-.092.246-.217.019-.137-.077-.263-.214-.281C49.908 25.766 49.772 25.75 49.633 25.75L49.633 25.75z"/></g><g><path fill="#39c2d8" d="M72,74H45.39c0,0-1.932-7.099,0-8.624c1.199-0.946,4.111,1.155,5.583,1.246 c1.416,0.087,2.495-1.246,5.346-1.246c2.851,0,2.851,1.246,5.465,1.246c3.089,0,3.089-1.243,5.762-1.246 c1.752-0.002,3.772,0.444,4.455,1.246V74"/><path fill="#472b29" d="M51.108,67.246c-0.059,0-0.116-0.002-0.176-0.005c-0.667-0.039-1.473-0.36-2.325-0.699 c-0.941-0.375-2.367-0.94-2.799-0.618c-0.312,0.231-0.75,0.167-0.979-0.142c-0.231-0.31-0.168-0.748,0.142-0.979 c1.062-0.793,2.635-0.166,4.155,0.438c0.711,0.283,1.447,0.576,1.889,0.602c0.455,0.026,0.923-0.155,1.514-0.386 c0.906-0.354,2.035-0.794,3.791-0.794c1.601,0,2.42,0.354,3.143,0.666c0.638,0.275,1.188,0.513,2.321,0.513 c1.464,0,2.138-0.276,2.851-0.568c0.73-0.299,1.485-0.608,2.91-0.61c0.005,0,0.009,0,0.014,0c1.84,0,4.084,0.436,4.963,1.41 c0.259,0.287,0.235,0.73-0.052,0.989c-0.287,0.258-0.729,0.235-0.989-0.052c-0.41-0.456-2.025-0.947-3.922-0.947 c-0.004,0-0.008,0-0.012,0c-1.15,0.001-1.721,0.234-2.381,0.506c-0.771,0.315-1.643,0.673-3.382,0.673 c-1.423,0-2.195-0.334-2.876-0.628c-0.656-0.283-1.276-0.551-2.588-0.551c-1.492,0-2.443,0.371-3.282,0.698 C52.4,67.01,51.796,67.246,51.108,67.246z"/><path fill="#bb7a54" d="M31.134,64.496c0,0,17.107-6.653,19.007-28.511c2.851,0,1.901,0,1.901,0 s-0.95,20.908-12.355,29.461C34.936,65.447,31.134,64.496,31.134,64.496z"/><path fill="#472b29" d="M39.688,66.146c-4.783,0-8.563-0.932-8.723-0.972c-0.295-0.073-0.509-0.33-0.528-0.634 c-0.02-0.305,0.16-0.586,0.444-0.697c0.167-0.065,16.726-6.776,18.563-27.919c0.031-0.361,0.334-0.64,0.697-0.64h2.053 c0.387,0,0.7,0.313,0.7,0.7c0,0.179-0.067,0.343-0.178,0.466c-0.206,3.146-1.853,21.488-12.609,29.555 C39.986,66.098,39.839,66.146,39.688,66.146z M33.3,64.208c1.491,0.246,3.69,0.521,6.153,0.537 c9.664-7.442,11.539-24.339,11.839-28.06h-0.514C49.029,53.861,37.843,61.704,33.3,64.208z"/><path fill="#60be92" d="M31.134,42.638c0,0,5.702-19.958,19.958-7.603C45.39,35.035,37.787,35.986,31.134,42.638z"/><path fill="#472b29" d="M31.135,43.338c-0.122,0-0.244-0.032-0.355-0.097c-0.274-0.162-0.405-0.489-0.317-0.796 c0.114-0.4,2.877-9.826,9.486-11.793c3.533-1.049,7.438,0.245,11.602,3.854c0.222,0.191,0.3,0.5,0.198,0.774 c-0.103,0.273-0.364,0.455-0.656,0.455c-5.179,0-12.831,0.767-19.462,7.397C31.495,43.268,31.315,43.338,31.135,43.338z M42.373,31.702c-0.693,0-1.369,0.097-2.025,0.292c-3.841,1.144-6.296,5.375-7.544,8.199c5.628-4.549,11.661-5.621,16.348-5.819 C46.742,32.596,44.474,31.702,42.373,31.702z"/><path fill="#60be92" d="M38.737,51.191c0,0-9.504-12.355,12.355-16.156C47.291,37.886,40.638,45.489,38.737,51.191z"/><path fill="#472b29" d="M38.737,51.892c-0.215,0-0.421-0.1-0.555-0.273c-0.143-0.185-3.464-4.582-1.681-9.162 c1.552-3.981,6.42-6.71,14.47-8.11c0.32-0.06,0.634,0.115,0.763,0.412c0.128,0.297,0.036,0.643-0.223,0.837 c-3.718,2.79-10.284,10.339-12.11,15.818c-0.082,0.245-0.292,0.426-0.548,0.469C38.814,51.889,38.775,51.892,38.737,51.892z M48.568,36.26C42.615,37.65,39,39.9,37.807,42.964c-1.012,2.598,0.003,5.222,0.78,6.667C40.58,45.003,45.021,39.563,48.568,36.26 z"/><path fill="#60be92" d="M70.099,42.638c0,0-4.752-19.958-19.007-7.603C56.794,35.035,63.447,35.986,70.099,42.638z"/><path fill="#472b29" d="M70.1,43.338c-0.181,0-0.36-0.07-0.495-0.205c-6.52-6.519-13.017-7.397-18.513-7.397 c-0.292,0-0.554-0.182-0.656-0.455c-0.102-0.274-0.023-0.583,0.198-0.774c4.196-3.638,8.052-4.927,11.463-3.828 c6.29,2.025,8.589,11.399,8.684,11.798c0.073,0.305-0.065,0.62-0.339,0.773C70.334,43.309,70.217,43.338,70.1,43.338z M53.026,34.375c4.77,0.209,10.136,1.352,15.59,5.947c-1.071-2.802-3.273-7.13-6.952-8.313 C59.137,31.199,56.236,31.993,53.026,34.375z"/><g><path fill="#60be92" d="M61.546,51.191c0,0,9.028-12.83-10.454-16.156C53.875,38.344,58.7,45.914,61.546,51.191z"/><path fill="#472b29" d="M61.546,51.892c-0.014,0-0.027-0.001-0.041-0.001c-0.242-0.015-0.46-0.153-0.575-0.367 c-2.688-4.985-7.498-12.619-10.374-16.038c-0.188-0.225-0.217-0.543-0.071-0.798c0.146-0.256,0.431-0.39,0.726-0.343 c6.78,1.158,10.989,3.597,12.508,7.247c1.998,4.802-1.451,9.792-1.6,10.003C61.986,51.781,61.772,51.892,61.546,51.892z M52.817,36.086c2.702,3.579,6.334,9.353,8.75,13.689c0.822-1.574,2.075-4.729,0.855-7.653 C61.232,39.271,58.005,37.245,52.817,36.086z"/></g><g><path fill="#f9e65c" d="M56.794,74h-26.61V63.546h11.404C46.837,63.546,53.943,67.728,56.794,74L56.794,74z"/></g><g><path fill="#472b29" d="M56.795,73.75c-0.257,0-0.505-0.142-0.627-0.387c-2.815-5.632-9.76-9.117-14.579-9.117H30.185 c-0.387,0-0.7-0.313-0.7-0.7s0.313-0.7,0.7-0.7h11.404c5.235,0,12.777,3.782,15.831,9.891c0.173,0.347,0.033,0.767-0.313,0.939 C57.007,73.727,56.899,73.75,56.795,73.75z"/></g></g><g><path fill="#472b29" d="M52.733,72.733c-0.069,0-0.14-0.029-0.188-0.086c-1.955-2.252-4.501-3.979-7.363-4.997 c-0.13-0.046-0.198-0.188-0.151-0.319c0.046-0.13,0.186-0.199,0.319-0.151c2.942,1.046,5.562,2.823,7.572,5.14 c0.091,0.104,0.08,0.263-0.024,0.353C52.85,72.713,52.792,72.733,52.733,72.733z"/></g><g><path fill="#472b29" d="M43.377,67.074c-0.016,0-0.032-0.002-0.049-0.005c-1.202-0.239-2.434-0.361-3.661-0.361 c-0.138,0-0.25-0.112-0.25-0.25s0.112-0.25,0.25-0.25c1.26,0,2.524,0.125,3.759,0.371c0.136,0.027,0.224,0.158,0.196,0.294 C43.599,66.992,43.494,67.074,43.377,67.074z"/></g><g><path fill="#472b29" d="M71.917,69.874c-0.068,0-0.137-0.027-0.186-0.083c-0.217-0.24-0.619-0.465-1.164-0.649 c-0.131-0.044-0.201-0.186-0.156-0.316c0.044-0.131,0.187-0.201,0.316-0.156c0.635,0.214,1.097,0.479,1.375,0.788 c0.093,0.103,0.084,0.26-0.019,0.353C72.037,69.853,71.977,69.874,71.917,69.874z"/></g><g><path fill="#472b29" d="M65.242,69.027c-0.103,0-0.198-0.063-0.235-0.165c-0.047-0.13,0.021-0.273,0.15-0.32 c0.5-0.181,1.156-0.366,2.229-0.367c0.734,0,1.491,0.069,2.189,0.199c0.136,0.025,0.226,0.156,0.2,0.292 c-0.025,0.135-0.149,0.225-0.292,0.2c-0.669-0.125-1.394-0.191-2.098-0.191c-0.995,0.001-1.599,0.171-2.059,0.338 C65.299,69.022,65.271,69.027,65.242,69.027z"/></g><g><path fill="#472b29" d="M61.526,69.874c-1.352,0-2.059-0.306-2.742-0.601c-0.713-0.308-1.387-0.599-2.816-0.599 c-0.138,0-0.25-0.112-0.25-0.25s0.112-0.25,0.25-0.25c1.533,0,2.286,0.325,3.015,0.64c0.666,0.288,1.296,0.56,2.544,0.56 c1.176,0,1.855-0.174,2.316-0.324c0.138-0.042,0.273,0.028,0.315,0.159c0.043,0.132-0.028,0.272-0.159,0.315 C63.262,69.767,62.499,69.874,61.526,69.874z"/></g></svg>